0
SECTION
2
HEADER
9
$ACADVER
1
AC1015
9
$INSUNITS
70
4
9
$MEASUREMENT
70
1
0
ENDSEC
0
SECTION
2
TABLES
0
TABLE
2
LAYER
70
5
0
LAYER
2
WALLS
70
0
62
7
6
CONTINUOUS
0
LAYER
2
DOORS
70
0
62
30
6
CONTINUOUS
0
LAYER
2
WINDOWS
70
0
62
5
6
CONTINUOUS
0
LAYER
2
DIMS
70
0
62
3
6
CONTINUOUS
0
LAYER
2
TEXT
70
0
62
2
6
CONTINUOUS
0
ENDTAB
0
ENDSEC
0
SECTION
2
ENTITIES
0
LINE
8
WALLS
10
0.0000
20
5000.0000
30
0
11
2400.0000
21
5000.0000
31
0
0
LINE
8
WALLS
10
3600.0000
20
5000.0000
30
0
11
6000.0000
21
5000.0000
31
0
0
LINE
8
WINDOWS
10
2400.0000
20
5000.0000
30
0
11
3600.0000
21
5000.0000
31
0
0
LINE
8
WINDOWS
10
2400.0000
20
5060.0000
30
0
11
3600.0000
21
5060.0000
31
0
0
LINE
8
WINDOWS
10
2400.0000
20
4940.0000
30
0
11
3600.0000
21
4940.0000
31
0
0
LINE
8
WALLS
10
6000.0000
20
0.0000
30
0
11
6000.0000
21
2050.0000
31
0
0
LINE
8
WALLS
10
6000.0000
20
2950.0000
30
0
11
6000.0000
21
5000.0000
31
0
0
LINE
8
DOORS
10
6000.0000
20
2050.0000
30
0
11
6000.0000
21
2950.0000
31
0
0
ARC
8
DOORS
10
6000.0000
20
2050.0000
30
0
40
900.0000
50
0.0000
51
90.0000
0
LINE
8
WALLS
10
0.0000
20
0.0000
30
0
11
2550.0000
21
0.0000
31
0
0
LINE
8
WALLS
10
3450.0000
20
0.0000
30
0
11
6000.0000
21
0.0000
31
0
0
LINE
8
DOORS
10
2550.0000
20
0.0000
30
0
11
3450.0000
21
0.0000
31
0
0
ARC
8
DOORS
10
2550.0000
20
0.0000
30
0
40
900.0000
50
0.0000
51
90.0000
0
LINE
8
WALLS
10
0.0000
20
0.0000
30
0
11
0.0000
21
1900.0000
31
0
0
LINE
8
WALLS
10
0.0000
20
3100.0000
30
0
11
0.0000
21
5000.0000
31
0
0
LINE
8
WINDOWS
10
0.0000
20
1900.0000
30
0
11
0.0000
21
3100.0000
31
0
0
LINE
8
WINDOWS
10
60.0000
20
1900.0000
30
0
11
60.0000
21
3100.0000
31
0
0
LINE
8
WINDOWS
10
-60.0000
20
1900.0000
30
0
11
-60.0000
21
3100.0000
31
0
0
TEXT
8
TEXT
10
3000.0000
20
2500.0000
30
0
40
180
1
Living Room
72
1
11
3000.0000
21
2500.0000
31
0
0
TEXT
8
TEXT
10
3000.0000
20
2300.0000
30
0
40
120
1
6x5m
72
1
11
3000.0000
21
2300.0000
31
0
0
LINE
8
WALLS
10
6000.0000
20
3500.0000
30
0
11
7400.0000
21
3500.0000
31
0
0
LINE
8
WALLS
10
8600.0000
20
3500.0000
30
0
11
10000.0000
21
3500.0000
31
0
0
LINE
8
WINDOWS
10
7400.0000
20
3500.0000
30
0
11
8600.0000
21
3500.0000
31
0
0
LINE
8
WINDOWS
10
7400.0000
20
3560.0000
30
0
11
8600.0000
21
3560.0000
31
0
0
LINE
8
WINDOWS
10
7400.0000
20
3440.0000
30
0
11
8600.0000
21
3440.0000
31
0
0
LINE
8
WALLS
10
10000.0000
20
0.0000
30
0
11
10000.0000
21
1150.0000
31
0
0
LINE
8
WALLS
10
10000.0000
20
2350.0000
30
0
11
10000.0000
21
3500.0000
31
0
0
LINE
8
WINDOWS
10
10000.0000
20
1150.0000
30
0
11
10000.0000
21
2350.0000
31
0
0
LINE
8
WINDOWS
10
10060.0000
20
1150.0000
30
0
11
10060.0000
21
2350.0000
31
0
0
LINE
8
WINDOWS
10
9940.0000
20
1150.0000
30
0
11
9940.0000
21
2350.0000
31
0
0
LINE
8
WALLS
10
6000.0000
20
0.0000
30
0
11
10000.0000
21
0.0000
31
0
0
LINE
8
WALLS
10
6000.0000
20
0.0000
30
0
11
6000.0000
21
1300.0000
31
0
0
LINE
8
WALLS
10
6000.0000
20
2200.0000
30
0
11
6000.0000
21
3500.0000
31
0
0
LINE
8
DOORS
10
6000.0000
20
1300.0000
30
0
11
6000.0000
21
2200.0000
31
0
0
ARC
8
DOORS
10
6000.0000
20
1300.0000
30
0
40
900.0000
50
0.0000
51
90.0000
0
TEXT
8
TEXT
10
8000.0000
20
1750.0000
30
0
40
180
1
Kitchen
72
1
11
8000.0000
21
1750.0000
31
0
0
TEXT
8
TEXT
10
8000.0000
20
1550.0000
30
0
40
120
1
4x3.5m
72
1
11
8000.0000
21
1550.0000
31
0
0
LINE
8
WALLS
10
0.0000
20
9500.0000
30
0
11
2050.0000
21
9500.0000
31
0
0
LINE
8
WALLS
10
2950.0000
20
9500.0000
30
0
11
5000.0000
21
9500.0000
31
0
0
LINE
8
DOORS
10
2050.0000
20
9500.0000
30
0
11
2950.0000
21
9500.0000
31
0
0
ARC
8
DOORS
10
2050.0000
20
9500.0000
30
0
40
900.0000
50
0.0000
51
90.0000
0
LINE
8
WALLS
10
5000.0000
20
5000.0000
30
0
11
5000.0000
21
9500.0000
31
0
0
LINE
8
WALLS
10
0.0000
20
5000.0000
30
0
11
1900.0000
21
5000.0000
31
0
0
LINE
8
WALLS
10
3100.0000
20
5000.0000
30
0
11
5000.0000
21
5000.0000
31
0
0
LINE
8
WINDOWS
10
1900.0000
20
5000.0000
30
0
11
3100.0000
21
5000.0000
31
0
0
LINE
8
WINDOWS
10
1900.0000
20
5060.0000
30
0
11
3100.0000
21
5060.0000
31
0
0
LINE
8
WINDOWS
10
1900.0000
20
4940.0000
30
0
11
3100.0000
21
4940.0000
31
0
0
LINE
8
WALLS
10
0.0000
20
5000.0000
30
0
11
0.0000
21
6650.0000
31
0
0
LINE
8
WALLS
10
0.0000
20
7850.0000
30
0
11
0.0000
21
9500.0000
31
0
0
LINE
8
WINDOWS
10
0.0000
20
6650.0000
30
0
11
0.0000
21
7850.0000
31
0
0
LINE
8
WINDOWS
10
60.0000
20
6650.0000
30
0
11
60.0000
21
7850.0000
31
0
0
LINE
8
WINDOWS
10
-60.0000
20
6650.0000
30
0
11
-60.0000
21
7850.0000
31
0
0
TEXT
8
TEXT
10
2500.0000
20
7250.0000
30
0
40
180
1
Bedroom
72
1
11
2500.0000
21
7250.0000
31
0
0
TEXT
8
TEXT
10
2500.0000
20
7050.0000
30
0
40
120
1
5x4.5m
72
1
11
2500.0000
21
7050.0000
31
0
0
LINE
8
WALLS
10
5000.0000
20
7500.0000
30
0
11
7500.0000
21
7500.0000
31
0
0
LINE
8
WALLS
10
7500.0000
20
5000.0000
30
0
11
7500.0000
21
5650.0000
31
0
0
LINE
8
WALLS
10
7500.0000
20
6850.0000
30
0
11
7500.0000
21
7500.0000
31
0
0
LINE
8
WINDOWS
10
7500.0000
20
5650.0000
30
0
11
7500.0000
21
6850.0000
31
0
0
LINE
8
WINDOWS
10
7560.0000
20
5650.0000
30
0
11
7560.0000
21
6850.0000
31
0
0
LINE
8
WINDOWS
10
7440.0000
20
5650.0000
30
0
11
7440.0000
21
6850.0000
31
0
0
LINE
8
WALLS
10
5000.0000
20
5000.0000
30
0
11
7500.0000
21
5000.0000
31
0
0
LINE
8
WALLS
10
5000.0000
20
5000.0000
30
0
11
5000.0000
21
5800.0000
31
0
0
LINE
8
WALLS
10
5000.0000
20
6700.0000
30
0
11
5000.0000
21
7500.0000
31
0
0
LINE
8
DOORS
10
5000.0000
20
5800.0000
30
0
11
5000.0000
21
6700.0000
31
0
0
ARC
8
DOORS
10
5000.0000
20
5800.0000
30
0
40
900.0000
50
0.0000
51
90.0000
0
TEXT
8
TEXT
10
6250.0000
20
6250.0000
30
0
40
180
1
Bathroom
72
1
11
6250.0000
21
6250.0000
31
0
0
TEXT
8
TEXT
10
6250.0000
20
6050.0000
30
0
40
120
1
2.5x2.5m
72
1
11
6250.0000
21
6050.0000
31
0
0
ENDSEC
0
EOF